<svg id="eXYthEkSBoC1" xmlns="http://www.w3.org/2000/svg" xmlns:xlink="http://www.w3.org/1999/xlink" viewBox="0 0 500 400" shape-rendering="geometricPrecision" text-rendering="geometricPrecision"><g id="eXYthEkSBoC2" transform="matrix(0.80378414286070 0 0 0.83513105608058 61.96427666561021 35.39593802714245)"><path id="eXYthEkSBoC3" d="M498.297720,73.275980Q516.559720,92.428460,539.046540,79.388300C532.755640,69.306680,531.257820,58.340770,532.934220,46.789240L503.730890,46.789240C505.024850,56.940230,504.676830,66.392070,498.297720,73.275980Z" transform="matrix(1 0 0 1 -72.06862627798671 -32.79002115969423)" fill="rgb(255,184,184)" stroke="none" stroke-width="1"/><polygon id="eXYthEkSBoC4" points="546.517029,407.416016 562.138000,399.267029 568.929016,313.015015 568.929016,267.511993 532.934021,266.833008 543.120972,312.335999 546.517029,407.416016" transform="matrix(1 0 0 1 -72.06862627798671 -32.79002115969428)" fill="rgb(255,184,184)" stroke="none" stroke-width="1"/><polygon id="eXYthEkSBoC5" points="501.237976,407.416016 485.617981,399.267029 478.827026,313.015015 478.827026,267.511993 514.820984,266.833008 504.633972,312.335999 501.237976,407.416016" transform="matrix(1 0 0 1 -72.06862627798677 -32.79002115969428)" fill="rgb(255,184,184)" stroke="none" stroke-width="1"/><path id="eXYthEkSBoC6" d="M477.244150,303.020110L515.276380,298.147100L521.388710,248.442420L528.859330,297.172510L570.287330,293.274100C571.192390,269.593280,568.893470,245.220660,563.495860,220.179020L472.490150,217.255160L477.244150,303.020110Z" transform="matrix(1 0 0 1 -72.06862627798671 -32.79002115969425)" fill="rgb(47,46,65)" stroke="none" stroke-width="1"/><path id="eXYthEkSBoC7" d="M437.714080,146.941080L391.965500,111.712910C391.490667,111.347266,390.968612,111.047448,390.413500,110.821590L383.764030,108.116190C378.423320,105.943270,368.250620,98.715960,373.211950,91.273970C377.211950,85.273970,392.523160,96.022440,394.406730,100.004470C395.002112,101.257542,395.978424,102.290300,397.196090,102.955100L406.493090,108.049710C406.719190,108.173608,406.952300,108.284262,407.191240,108.381110L442.587420,122.727980C444.578118,123.534859,446.835894,123.331104,448.649970,122.180860L455.067240,118.111860C456.920954,116.936487,459.235067,116.750916,461.252397,117.615865C463.269727,118.480815,464.730714,120.284997,465.157320,122.438080L467.278230,133.142300C467.908752,136.324529,466.152494,139.497622,463.121140,140.653060L444.143670,147.886600C441.981840,148.710649,439.547151,148.352609,437.714080,146.941080Z" transform="matrix(1 0 0 1 -72.06862627798677 -32.79002115969428)" fill="rgb(255,184,184)" stroke="none" stroke-width="1"/><path id="eXYthEkSBoC8" d="M446.211920,121.273970C458.878280,117.877460,457.548420,135.572970,467.211920,144.273970L486.211920,129.273970L475.206720,75.992570L475.206720,75.992570C469.220430,77.702937,464.386978,82.128914,462.157370,87.941820L446.211920,121.273970Z" transform="matrix(1 0 0 1 -72.06862627798677 -32.79002115969428)" fill="rgb(50,221,127)" stroke="none" stroke-width="1"/><path id="eXYthEkSBoC9" d="M469.773540,220.650900L565.533280,220.650900C550.035490,178.887420,551.544280,135.933950,564.740050,92.162690C565.197114,90.663630,564.523813,89.051359,563.136380,88.322580L535.650810,73.955130C524.861470,80.975560,513.265650,78.818130,501.014310,69.201130L471.131830,77.350890C479.266680,126.207740,479.497730,174.061230,469.773540,220.650900Z" transform="matrix(1 0 0 1 -72.06862627798671 -32.79002115969428)" fill="rgb(50,221,127)" stroke="none" stroke-width="1"/><path id="eXYthEkSBoC10" d="M493.718150,424.367440L453.811260,426.059040C450.212553,426.211584,447.078373,423.625014,446.545440,420.062720L446.545440,420.062720C446.006811,416.462390,448.299927,413.044613,451.835650,412.177920L458.604430,410.518730L485.208260,395.098630C489.149640,399.180030,494.577020,402.631050,501.211920,405.569870L501.289550,416.411500C501.320025,420.669687,497.972626,424.187096,493.718150,424.367440Z" transform="matrix(1 0 0 1 -72.06862627798677 -32.79002115969428)" fill="rgb(47,46,65)" stroke="none" stroke-width="1"/><polygon id="eXYthEkSBoC11" points="622.996887,427.197998 8.320984,427.197998 8.320984,425.017029 623.271973,425.017029 622.996887,427.197998" transform="matrix(0.93492306482921 0 0 0.42495491246240 -51.51755933434922 212.24101119978775)" fill="rgb(63,61,86)" stroke="none" stroke-width="1"/><path id="eXYthEkSBoC12" d="M553.705690,423.761450L593.612570,425.453050C597.211277,425.605594,600.345457,423.019024,600.878390,419.456730L600.878390,419.456730C601.417019,415.856400,599.123903,412.438623,595.588180,411.571930L588.819400,409.912740L562.215560,394.492640C558.274190,398.574040,552.846810,402.025060,546.211910,404.963880L546.134280,415.805510C546.103800,420.063703,549.451208,423.581116,553.705690,423.761450Z" transform="matrix(1 0 0 1 -72.06862627798665 -32.79002115969428)" fill="rgb(47,46,65)" stroke="none" stroke-width="1"/><circle id="eXYthEkSBoC13" r="21.732700" transform="matrix(1 0 0 1 443.20737372201319 4.49117884030574)" fill="rgb(255,184,184)" stroke="none" stroke-width="1"/><path id="eXYthEkSBoC14" d="M549.233750,213.859430L542.053950,227.820150C540.772416,230.312021,540.616734,233.232747,541.626115,235.846729C542.635495,238.460712,544.713735,240.518816,547.337420,241.502700L547.337420,241.502700C550.118096,242.545449,553.221334,242.273473,555.778233,240.762927C558.335132,239.252381,560.070861,236.665627,560.499420,233.726950L563.495810,213.180270L574.362150,161.565100L573.683010,135.757510L551.950340,135.757510C559.363150,154.952480,555.685810,183.265350,549.233750,213.859430Z" transform="matrix(1 0 0 1 -72.06862627798671 -32.79002115969425)" fill="rgb(255,184,184)" stroke="none" stroke-width="1"/><path id="eXYthEkSBoC15" d="M548.554600,138.474100L577.757930,138.474100L573.519030,106.446890C572.350974,97.621561,566.787159,89.990726,558.741820,86.179780L558.741820,86.179780L548.554600,138.474100Z" transform="matrix(1 0 0 1 -72.06862627798665 -32.79002115969428)" fill="rgb(50,221,127)" stroke="none" stroke-width="1"/><path id="eXYthEkSBoC16" d="M538.381280,25.310500C539.259433,19.439008,537.598525,13.471155,533.813390,8.897500C530.105580,4.509800,523.890390,0.918500,513.579060,2.612680C491.081740,6.309160,484.594340,25.037960,486.798430,29.747990C489.002520,34.458020,495.758430,45.376400,495.758430,45.376400C495.758430,45.376400,490.800120,34.568300,496.181500,32.368310C501.562880,30.168320,522.388700,21.501610,529.657500,25.405960C533.846343,27.509171,536.582555,31.700375,536.822790,36.381420L538.381280,25.310500Z" transform="matrix(1 0 0 1 -72.06862627798677 -32.79002115969426)" fill="rgb(47,46,65)" stroke="none" stroke-width="1"/><path id="eXYthEkSBoC17" d="M84.229240,127.006340L84.229240,119.783710C84.229240,119.783710,115.746240,102.055420,141.353720,119.783710L141.353720,126.349710L84.229240,127.006340Z" transform="matrix(1 0 0 1 -72.06862627798670 -32.79002115969428)" fill="rgb(83,84,97)" stroke="none" stroke-width="1"/><path id="eXYthEkSBoC18" d="M371.164870,127.006340L371.164870,119.783710C371.164870,119.783710,402.681820,102.055420,428.289350,119.783710L428.289350,126.349710L371.164870,127.006340Z" transform="matrix(1 0 0 1 -72.06862627798677 -32.79002115969428)" fill="rgb(83,84,97)" stroke="none" stroke-width="1"/><path id="eXYthEkSBoC19" d="M179.780150,126.349740L148.919750,126.349740C148.919750,126.349740,141.040510,117.157300,114.776390,117.813900C88.512270,118.470500,83.259390,126.349740,83.259390,126.349740C83.259390,126.349740,57.323560,143.749740,51.414130,165.417630C51.414130,165.417630,19.568880,260.953400,18.912280,335.806170C18.255680,410.658940,47.146210,421.164590,62.248090,423.134400C77.349970,425.104210,104.270690,422.477790,130.534820,356.160870L141.697150,317.421280C141.697150,317.421280,143.666960,294.440170,167.304670,308.885440C190.942380,323.330710,211.953670,301.006200,211.953670,301.006200L300.595110,301.006200C300.595110,301.006200,330.142250,319.391090,357.062980,304.945820C357.062980,304.945820,367.568630,291.157150,377.417680,337.775980C377.417680,337.775980,407.621430,433.640050,454.240260,423.790980C500.859090,413.941910,495.606260,333.836340,495.606260,333.836340C495.606260,333.836340,489.368530,211.379840,463.761010,168.044030C463.761010,168.044030,439.138390,123.066700,422.723310,121.096900C422.723310,121.096900,387.266730,114.530900,373.478060,120.440290L365.598830,127.006290L179.780150,126.349740Z" transform="matrix(1 0 0 1 -72.06862627798668 -32.79002115969425)" fill="rgb(50,221,127)" stroke="none" stroke-width="1"/><circle id="eXYthEkSBoC20" r="57.124500" transform="matrix(1 0 0 1 35.14137372201330 157.90697884030575)" fill="rgb(83,84,97)" stroke="none" stroke-width="1"/><circle id="eXYthEkSBoC21" r="57.124500" transform="matrix(1 0 0 1 333.23937372201323 157.90697884030575)" fill="rgb(83,84,97)" stroke="none" stroke-width="1"/><path id="eXYthEkSBoC22" d="M117.164460,177.958760L109.547860,184.695510C108.213437,185.870302,106.213843,185.870302,104.879420,184.695510L97.249690,177.958760C96.494974,177.293813,96.060173,176.338193,96.054690,175.332350L96.054690,156.796430C96.058303,154.848023,97.638809,153.270438,99.587220,153.270430L114.853220,153.270430C116.800546,153.266820,118.382103,154.842494,118.385750,156.789820L118.385750,175.319230C118.377388,176.333810,117.932368,177.295616,117.164460,177.958760Z" transform="matrix(1 0 0 1 -72.06862627798670 -32.79002115969425)" fill="rgb(230,230,230)" stroke="none" stroke-width="1"/><path id="eXYthEkSBoC23" d="M117.164460,203.428400L109.547860,196.698220C108.213431,195.523442,106.213849,195.523442,104.879420,196.698220L97.249690,203.434980C96.494974,204.099927,96.060173,205.055547,96.054690,206.061390L96.054690,224.577610C96.051080,226.524932,97.626748,228.106487,99.574070,228.110140L114.853240,228.110140C116.800566,228.113750,118.382123,226.538076,118.385770,224.590750L118.385770,206.067960C118.377402,205.053368,117.932376,204.091553,117.164460,203.428400Z" transform="matrix(1 0 0 1 -72.06862627798670 -32.79002115969425)" fill="rgb(230,230,230)" stroke="none" stroke-width="1"/><path id="eXYthEkSBoC24" d="M94.478830,200.664090L101.215580,193.034360C102.390372,191.699937,102.390372,189.700343,101.215580,188.365920L94.478830,180.736200C93.813374,179.982165,92.858074,179.547511,91.852410,179.541200L73.336200,179.541200C71.387793,179.544813,69.810208,181.125319,69.810200,183.073730L69.810200,198.339730C69.806590,200.287052,71.382258,201.868607,73.329580,201.872260L91.858950,201.872260C92.864579,201.861586,93.817795,201.422006,94.478830,200.664090Z" transform="matrix(1 0 0 1 -72.06862627798670 -32.79002115969425)" fill="rgb(230,230,230)" stroke="none" stroke-width="1"/><path id="eXYthEkSBoC25" d="M119.948450,200.664090L113.224840,193.027810C112.047165,191.694476,112.047165,189.692704,113.224840,188.359370L119.961600,180.729640C120.626547,179.974924,121.582167,179.540123,122.588010,179.534640L141.104230,179.534640C143.051556,179.531030,144.633113,181.106704,144.636760,183.054030L144.636760,198.333230C144.640364,200.280552,143.064692,201.862103,141.117370,201.865750L122.594580,201.865750C121.580800,201.864236,120.616724,201.426430,119.948450,200.664090Z" transform="matrix(1 0 0 1 -72.06862627798671 -32.79002115969425)" fill="rgb(230,230,230)" stroke="none" stroke-width="1"/><circle id="eXYthEkSBoC26" r="41.366000" transform="matrix(1 0 0 1 112.62137372201327 220.28397884030576)" fill="rgb(83,84,97)" stroke="none" stroke-width="1"/><circle id="eXYthEkSBoC27" r="41.366000" transform="matrix(1 0 0 1 255.76037372201327 220.28397884030576)" fill="rgb(83,84,97)" stroke="none" stroke-width="1"/><circle id="eXYthEkSBoC28" r="27.577300" transform="matrix(1 0 0 1 112.62137372201327 220.28397884030576)" fill="rgb(230,230,230)" stroke="none" stroke-width="1"/><path id="eXYthEkSBoC29" d="M184.689670,272.115550C176.988099,272.115558,170.044871,267.476250,167.097603,260.360928C164.150335,253.245607,165.779441,245.055514,171.225273,239.609680C176.671104,234.163846,184.861196,232.534734,191.976519,235.481999C199.091842,238.429263,203.731154,245.372489,203.731150,253.074060C203.719186,263.585421,195.201031,272.103580,184.689670,272.115550ZM184.689670,235.345770C177.519246,235.345770,171.054868,239.665129,168.310866,246.289737C165.566863,252.914345,167.083621,260.539599,172.153876,265.609854C177.224131,270.680109,184.849385,272.196867,191.473993,269.452864C198.098601,266.708862,202.417960,260.244484,202.417960,253.074060C202.406823,243.287613,194.476117,235.356907,184.689670,235.345770Z" transform="matrix(1 0 0 1 -72.06862627798672 -32.79002115969425)" fill="rgb(83,84,97)" stroke="none" stroke-width="1"/><circle id="eXYthEkSBoC30" r="27.577300" transform="matrix(1 0 0 1 255.76037372201327 220.28397884030576)" fill="rgb(230,230,230)" stroke="none" stroke-width="1"/><path id="eXYthEkSBoC31" d="M327.829150,272.115550C320.127580,272.115554,313.184355,267.476243,310.237090,260.360921C307.289825,253.245599,308.918934,245.055508,314.364766,239.609676C319.810598,234.163844,328.000689,232.534735,335.116011,235.482000C342.231333,238.429265,346.870644,245.372490,346.870640,253.074060C346.858561,263.585377,338.340467,272.103471,327.829150,272.115550ZM327.829150,235.345770C318.038086,235.345770,310.100860,243.282996,310.100860,253.074060C310.100860,262.865124,318.038086,270.802350,327.829150,270.802350C337.620214,270.802350,345.557440,262.865124,345.557440,253.074060C345.546303,243.287613,337.615597,235.356907,327.829150,235.345770Z" transform="matrix(1 0 0 1 -72.06862627798674 -32.79002115969425)" fill="rgb(83,84,97)" stroke="none" stroke-width="1"/><circle id="eXYthEkSBoC32" r="11.818900" transform="matrix(1 0 0 1 185.50337372201332 224.87997884030577)" fill="rgb(83,84,97)" stroke="none" stroke-width="1"/><circle id="eXYthEkSBoC33" r="2.580450" transform="matrix(1 0 0 1 167.44037372201331 185.43197884030576)" fill="rgb(83,84,97)" stroke="none" stroke-width="1"/><circle id="eXYthEkSBoC34" r="2.580450" transform="matrix(1 0 0 1 177.10637372201333 185.43197884030576)" fill="rgb(83,84,97)" stroke="none" stroke-width="1"/><circle id="eXYthEkSBoC35" r="2.580450" transform="matrix(1 0 0 1 175.81937372201332 197.67697884030582)" fill="rgb(83,84,97)" stroke="none" stroke-width="1"/><circle id="eXYthEkSBoC36" r="2.626410" transform="matrix(1 0 0 1 184.84737372201332 197.95997884030581)" fill="rgb(83,84,97)" stroke="none" stroke-width="1"/><circle id="eXYthEkSBoC37" r="2.580450" transform="matrix(1 0 0 1 193.86237372201325 197.67697884030582)" fill="rgb(83,84,97)" stroke="none" stroke-width="1"/><circle id="eXYthEkSBoC38" r="2.580450" transform="matrix(1 0 0 1 171.95137372201333 191.87997884030574)" fill="rgb(83,84,97)" stroke="none" stroke-width="1"/><circle id="eXYthEkSBoC39" r="2.626410" transform="matrix(1 0 0 1 180.25137372201331 192.04997884030576)" fill="rgb(83,84,97)" stroke="none" stroke-width="1"/><circle id="eXYthEkSBoC40" r="2.626410" transform="matrix(1 0 0 1 188.78637372201328 192.04997884030576)" fill="rgb(83,84,97)" stroke="none" stroke-width="1"/><circle id="eXYthEkSBoC41" r="2.580450" transform="matrix(1 0 0 1 197.72937372201326 191.87997884030574)" fill="rgb(83,84,97)" stroke="none" stroke-width="1"/><circle id="eXYthEkSBoC42" r="2.626410" transform="matrix(1 0 0 1 184.84737372201332 185.48397884030575)" fill="rgb(83,84,97)" stroke="none" stroke-width="1"/><circle id="eXYthEkSBoC43" r="2.626410" transform="matrix(1 0 0 1 194.03937372201327 185.48397884030575)" fill="rgb(83,84,97)" stroke="none" stroke-width="1"/><circle id="eXYthEkSBoC44" r="2.580450" transform="matrix(1 0 0 1 201.59737372201326 185.43197884030576)" fill="rgb(83,84,97)" stroke="none" stroke-width="1"/><path id="eXYthEkSBoC45" d="M159.410080,131.945910C156.881183,131.948682,154.831798,133.998063,154.829020,136.526960L154.829020,150.316030C154.831798,152.844927,156.881183,154.894308,159.410080,154.897080L162.693280,154.897080C165.222175,154.894308,167.271558,152.844925,167.274330,150.316030L167.274330,136.526960C167.271558,133.998065,165.222175,131.948682,162.693280,131.945910L159.410080,131.945910Z" transform="matrix(1 0 0 1 -72.06862627798671 -32.79002115969428)" fill="rgb(83,84,97)" stroke="none" stroke-width="1"/><path id="eXYthEkSBoC46" d="M351.138150,131.945910C348.609187,131.948517,346.559707,133.997997,346.557100,136.526960L346.557100,150.316030C346.559707,152.844993,348.609187,154.894473,351.138150,154.897080L354.421360,154.897080C356.950323,154.894473,358.999803,152.844993,359.002410,150.316030L359.002410,136.526960C358.999803,133.997997,356.950323,131.948517,354.421360,131.945910L351.138150,131.945910Z" transform="matrix(1 0 0 1 -72.06862627798677 -32.79002115969428)" fill="rgb(83,84,97)" stroke="none" stroke-width="1"/><circle id="eXYthEkSBoC47" r="15.758500" transform="matrix(1 0 0 1 333.89637372201321 123.10697884030573)" fill="rgb(230,230,230)" stroke="none" stroke-width="1"/><circle id="eXYthEkSBoC48" r="15.758500" transform="matrix(1 0 0 1 300.40937372201324 156.59397884030574)" fill="rgb(230,230,230)" stroke="none" stroke-width="1"/><circle id="eXYthEkSBoC49" r="15.758500" transform="matrix(1 0 0 1 368.69637372201322 154.62397884030574)" fill="rgb(230,230,230)" stroke="none" stroke-width="1"/><circle id="eXYthEkSBoC50" r="15.758500" transform="matrix(1 0 0 1 336.52237372201324 189.42397884030575)" fill="rgb(230,230,230)" stroke="none" stroke-width="1"/><path id="eXYthEkSBoC51" d="M189.121500,122.753530C181.789922,122.761862,175.848582,128.703202,175.840250,136.034780L175.840250,194.800400C175.848588,202.131975,181.789925,208.073312,189.121500,208.081650L324.053150,208.081650C331.384725,208.073312,337.326062,202.131975,337.334400,194.800400L337.334400,136.034780C337.326068,128.703202,331.384728,122.761862,324.053150,122.753530L189.121500,122.753530Z" transform="matrix(1 0 0 1 -72.06862627798668 -32.79002115969425)" fill="rgb(83,84,97)" stroke="none" stroke-width="1"/><path id="eXYthEkSBoC52" d="M416.670660,163.119420L395.300920,163.119420L405.617420,145.434420L416.670660,163.119420ZM397.587490,161.806230L414.300740,161.806230L405.655890,147.974230L397.587490,161.806230Z" transform="matrix(1 0 0 1 -72.06862627798677 -32.79002115969428)" fill="rgb(83,84,97)" stroke="none" stroke-width="1"/><path id="eXYthEkSBoC53" d="M381.342330,197.262780L363.614050,197.262780L363.614050,181.504310L381.342330,181.504310L381.342330,197.262780ZM364.927250,195.949580L380.029150,195.949580L380.029150,182.817510L364.927250,182.817510L364.927250,195.949580Z" transform="matrix(1 0 0 1 -72.06862627798677 -32.79002115969425)" fill="rgb(83,84,97)" stroke="none" stroke-width="1"/><path id="eXYthEkSBoC54" d="M440.764930,197.262780C435.325484,197.262780,430.915939,192.853243,430.915930,187.413797C430.915921,181.974351,435.325451,177.564798,440.764897,177.564780C446.204343,177.564762,450.613902,181.974284,450.613930,187.413730C450.607895,192.850689,446.201889,197.256718,440.764930,197.262780ZM440.764930,178.877890C437.312499,178.877886,434.200015,180.957578,432.878825,184.147207C431.557635,187.336836,432.287925,191.008260,434.729163,193.449497C437.170400,195.890735,440.841824,196.621025,444.031453,195.299835C447.221082,193.978645,449.300774,190.866161,449.300770,187.413730C449.295435,182.701727,445.476933,178.883225,440.764930,178.877890Z" transform="matrix(1 0 0 1 -72.06862627798677 -32.79002115969425)" fill="rgb(83,84,97)" stroke="none" stroke-width="1"/><rect id="eXYthEkSBoC55" width="1.313070" height="20.893000" rx="0" ry="0" transform="matrix(0.70710700000000 -0.70710700000000 0.70710700000000 0.70710700000000 328.50846077501342 184.50097279330606)" fill="rgb(83,84,97)" stroke="none" stroke-width="1"/><rect id="eXYthEkSBoC56" width="20.898100" height="1.313390" rx="0" ry="0" transform="matrix(0.72255700000000 -0.69131100000000 0.69131100000000 0.72255700000000 328.51883815101337 198.00887406330554)" fill="rgb(83,84,97)" stroke="none" stroke-width="1"/></g></svg>