<svg id="ehSbDozulXW1" xmlns="http://www.w3.org/2000/svg" xmlns:xlink="http://www.w3.org/1999/xlink" viewBox="0 0 500 400" shape-rendering="geometricPrecision" text-rendering="geometricPrecision"><g transform="matrix(.803784 0 0 0.835131 61.964322 35.39595)"><path d="M498.29772,73.27598q18.262,19.15248,40.74882,6.11232c-6.2909-10.08162-7.78872-21.04753-6.11232-32.59906h-29.20333c1.29396,10.15099.94594,19.60283-5.43317,26.48674Z" transform="translate(-72.068627-32.790022)" fill="#ffb8b8"/><polygon points="546.517029,407.416016 562.138,399.267029 568.929016,313.015015 568.929016,267.511993 532.934021,266.833008 543.120972,312.335999 546.517029,407.416016" transform="translate(-72.068627-32.790021)" fill="#ffb8b8"/><polygon points="501.237976,407.416016 485.617981,399.267029 478.827026,313.015015 478.827026,267.511993 514.820984,266.833008 504.633972,312.335999 501.237976,407.416016" transform="translate(-72.068626-32.790021)" fill="#ffb8b8"/><path d="M477.24415,303.02011l38.03223-4.87301l6.11233-49.70468l7.47062,48.73009l41.428-3.89841c.90506-23.68082-1.39386-48.05344-6.79147-73.09508l-91.00571-2.92386l4.754,85.76495Z" transform="translate(-72.068626-32.790021)" fill="#535461"/><path d="M437.71408,146.94108L391.9655,111.71291c-.474833-.365644-.996888-.665462-1.552-.89132l-6.64947-2.7054c-5.34071-2.17292-15.51341-9.40023-10.55208-16.84222c4-6,19.31121,4.74847,21.19478,8.7305.595382,1.253072,1.571694,2.28583,2.78936,2.95063l9.297,5.09461c.2261.123898.45921.234552.69815.3314l35.39618,14.34687c1.990698.806879,4.248474.603124,6.06255-.54712l6.41727-4.069c1.853714-1.175373,4.167827-1.360944,6.185157-.495995s3.478317,2.669132,3.904923,4.822215l2.12091,10.70422c.630522,3.182229-1.125736,6.355322-4.15709,7.51076l-18.97747,7.23354c-2.16183.824049-4.596519.466009-6.42959-.94552Z" transform="translate(-72.068627-32.790021)" fill="#ffb8b8"/><path d="M446.21192,121.27397c12.66636-3.39651,11.3365,14.299,21,23l19-15-11.0052-53.2814v0c-5.98629,1.710367-10.819742,6.136344-13.04935,11.94925l-15.94545,33.33215Z" transform="translate(-72.068626-32.790021)" fill="#ff3131"/><path d="M469.77354,220.6509h95.75974c-15.49779-41.76348-13.989-84.71695-.79323-128.48821.457064-1.49906-.216237-3.111331-1.60367-3.84011L535.65081,73.95513c-10.78934,7.02043-22.38516,4.863-34.6365-4.754l-29.88248,8.14976c8.13485,48.85685,8.3659,96.71034-1.35829,143.30001Z" transform="translate(-72.068626-32.790021)" fill="#ff3131"/><path d="M493.71815,424.36744l-39.90689,1.6916c-3.598707.152544-6.732887-2.434026-7.26582-5.99632v0c-.538629-3.60033,1.754487-7.018107,5.29021-7.8848l6.76878-1.65919l26.60383-15.4201c3.94138,4.0814,9.36876,7.53242,16.00366,10.47124l.07763,10.84163c.030475,4.258187-3.316924,7.775596-7.5714,7.95594Z" transform="translate(-72.068627-32.790021)" fill="#535461"/><polygon points="622.996887,427.197998 8.320984,427.197998 8.320984,425.017029 623.271973,425.017029 622.996887,427.197998" transform="matrix(.934923 0 0 0.424955-51.517539 212.240974)" fill="#3f3d56"/><path d="M553.70569,423.76145l39.90688,1.6916c3.598707.152544,6.732887-2.434026,7.26582-5.99632v0c.538629-3.60033-1.754487-7.018107-5.29021-7.8848l-6.76878-1.65919-26.60384-15.4201c-3.94137,4.0814-9.36875,7.53242-16.00365,10.47124l-.07763,10.84163c-.03048,4.258193,3.316928,7.775606,7.57141,7.95594Z" transform="translate(-72.068626-32.790021)" fill="#535461"/><circle r="21.7327" transform="translate(443.207374 4.491178)" fill="#ffb8b8"/><path d="M549.23375,213.85943l-7.1798,13.96072c-1.281534,2.491871-1.437216,5.412597-.427835,8.026579s3.08762,4.672087,5.711305,5.655971v0c2.780676,1.042749,5.883914.770773,8.440813-.739773s4.292628-4.0973,4.721187-7.035977l2.99639-20.54668l10.86634-51.61517-.67914-25.80759h-21.73267c7.41281,19.19497,3.73547,47.50784-2.71659,78.10192Z" transform="translate(-72.068626-32.790021)" fill="#ffb8b8"/><path d="M548.5546,138.4741h29.20333l-4.2389-32.02721c-1.168056-8.825329-6.731871-16.456164-14.77721-20.26711v0L548.5546,138.4741Z" transform="translate(-72.068627-32.790021)" fill="#ff3131"/><path d="M538.38128,25.3105c.878153-5.871492-.782755-11.839345-4.56789-16.413-3.70781-4.3877-9.923-7.979-20.23433-6.28482-22.49732,3.69648-28.98472,22.42528-26.78063,27.13531s8.96,15.62841,8.96,15.62841-4.95831-10.8081.42307-13.00809s26.2072-10.8667,33.476-6.96235c4.188843,2.103211,6.925055,6.294415,7.16529,10.97546l1.55849-11.07092Z" transform="translate(-72.068626-32.790021)" fill="#535461"/><path d="M84.22924,127.00634v-7.22263c0,0,31.517-17.72829,57.12448,0v6.566l-57.12448.65663Z" transform="translate(-72.068626-32.790021)" fill="#535461"/><path d="M371.16487,127.00634v-7.22263c0,0,31.51695-17.72829,57.12448,0v6.566l-57.12448.65663Z" transform="translate(-72.068627-32.790021)" fill="#535461"/><path d="M179.78015,126.34974h-30.8604c0,0-7.87924-9.19244-34.14336-8.53584s-31.517,8.53584-31.517,8.53584-25.93583,17.4-31.84526,39.06789c0,0-31.84525,95.53577-32.50185,170.38854s28.23393,85.35842,43.33581,87.32823s42.0226-.65661,68.28673-66.97353l11.16233-38.73959c0,0,1.96981-22.98111,25.60752-8.53584s44.649-7.87924,44.649-7.87924h88.64144c0,0,29.54714,18.38489,56.46787,3.93962c0,0,10.50565-13.78867,20.3547,32.83016c0,0,30.20375,95.86407,76.82258,86.015s41.366-89.95464,41.366-89.95464-6.23773-122.4565-31.84525-165.79231c0,0-24.62262-44.97733-41.0377-46.94713c0,0-35.45658-6.566-49.24525-.65661l-7.87923,6.566-185.81868-.65655Z" transform="translate(-72.068626-32.790021)" fill="#ff3131"/><circle r="57.1245" transform="translate(35.141374 157.906979)" fill="#535461"/><circle r="57.1245" transform="translate(333.239373 157.906979)" fill="#535461"/><path d="M117.16446,177.95876l-7.6166,6.73675c-1.334423,1.174792-3.334017,1.174792-4.66844,0l-7.62973-6.73675c-.754716-.664947-1.189517-1.620567-1.195-2.62641v-18.53592c.003613-1.948407,1.584119-3.525992,3.53253-3.526h15.266c1.947326-.00361,3.528883,1.572064,3.53253,3.51939v18.52941c-.008362,1.01458-.453382,1.976386-1.22129,2.63953Z" transform="translate(-72.068627-32.790021)" fill="#e6e6e6"/><path d="M117.16446,203.4284l-7.6166-6.73018c-1.334429-1.174778-3.334011-1.174778-4.66844,0l-7.62973,6.73676c-.754716.664947-1.189517,1.620567-1.195,2.62641v18.51622c-.00361,1.947322,1.572058,3.528877,3.51938,3.53253h15.27917c1.947326.00361,3.528883-1.572064,3.53253-3.51939v-18.52279c-.008368-1.014592-.453394-1.976407-1.22131-2.63956Z" transform="translate(-72.068626-32.790022)" fill="#e6e6e6"/><path d="M94.47883,200.66409l6.73675-7.62973c1.174792-1.334423,1.174792-3.334017,0-4.66844l-6.73675-7.62972c-.665456-.754035-1.620756-1.188689-2.62642-1.195h-18.51621c-1.948407.003613-3.525992,1.584119-3.526,3.53253v15.266c-.00361,1.947322,1.572058,3.528877,3.51938,3.53253h18.52937c1.005629-.010674,1.958845-.450254,2.61988-1.20817Z" transform="translate(-72.068626-32.790021)" fill="#e6e6e6"/><path d="M119.94845,200.66409l-6.72361-7.63628c-1.177675-1.333334-1.177675-3.335106,0-4.66844l6.73676-7.62973c.664947-.754716,1.620567-1.189517,2.62641-1.195h18.51622c1.947326-.00361,3.528883,1.572064,3.53253,3.51939v15.2792c.003604,1.947322-1.572068,3.528873-3.51939,3.53252h-18.52279c-1.01378-.001514-1.977856-.43932-2.64613-1.20166Z" transform="translate(-72.068626-32.790021)" fill="#e6e6e6"/><circle r="41.366" transform="translate(112.621373 220.283978)" fill="#535461"/><circle r="41.366" transform="translate(255.760373 220.283978)" fill="#535461"/><circle r="27.5773" transform="translate(112.621374 220.283979)" fill="#e6e6e6"/><path d="M184.68967,272.11555c-7.701571.000008-14.644799-4.6393-17.592067-11.754622s-1.318162-15.305414,4.12767-20.751248s13.635923-7.074946,20.751246-4.127681s11.754635,9.89049,11.754631,17.592061c-.011964,10.511361-8.530119,19.02952-19.04148,19.04149Zm0-36.76978c-7.170424,0-13.634802,4.319359-16.378804,10.943967s-1.227245,14.249862,3.84301,19.320117s12.695509,6.587013,19.320117,3.84301s10.943967-9.20838,10.943967-16.378804c-.011137-9.786447-7.941843-17.717153-17.72829-17.72829Z" transform="translate(-72.068626-32.790021)" fill="#535461"/><circle r="27.5773" transform="translate(255.760374 220.283979)" fill="#e6e6e6"/><path d="M327.82915,272.11555c-7.70157.000004-14.644795-4.639307-17.59206-11.754629s-1.318156-15.305413,4.127676-20.751245s13.635923-7.074941,20.751245-4.127676s11.754633,9.89049,11.754629,17.59206c-.012079,10.511317-8.530173,19.029411-19.04149,19.04149Zm0-36.76978c-9.791064,0-17.72829,7.937226-17.72829,17.72829s7.937226,17.72829,17.72829,17.72829s17.72829-7.937226,17.72829-17.72829c-.011137-9.786447-7.941843-17.717153-17.72829-17.72829Z" transform="translate(-72.068627-32.790021)" fill="#535461"/><circle r="11.8189" transform="translate(185.503373 224.879979)" fill="#535461"/><circle r="2.58045" transform="translate(167.440374 185.431979)" fill="#535461"/><circle r="2.58045" transform="translate(177.106374 185.431979)" fill="#535461"/><circle r="2.58045" transform="translate(175.819374 197.676979)" fill="#535461"/><circle r="2.62641" transform="translate(184.847373 197.959979)" fill="#535461"/><circle r="2.58045" transform="translate(193.862374 197.676979)" fill="#535461"/><circle r="2.58045" transform="translate(171.951373 191.879979)" fill="#535461"/><circle r="2.62641" transform="translate(180.251374 192.049979)" fill="#535461"/><circle r="2.62641" transform="translate(188.786374 192.049979)" fill="#535461"/><circle r="2.58045" transform="translate(197.729374 191.879979)" fill="#535461"/><circle r="2.62641" transform="translate(184.847373 185.483979)" fill="#535461"/><circle r="2.62641" transform="translate(194.039374 185.483979)" fill="#535461"/><circle r="2.58045" transform="translate(201.597373 185.431979)" fill="#535461"/><path d="M159.41008,131.94591c-2.528897.002772-4.578282,2.052153-4.58106,4.58105v13.78907c.002778,2.528897,2.052163,4.578278,4.58106,4.58105h3.2832c2.528895-.002772,4.578278-2.052155,4.58105-4.58105v-13.78907c-.002772-2.528895-2.052155-4.578278-4.58105-4.58105h-3.2832Z" transform="translate(-72.068627-32.790021)" fill="#535461"/><path d="M351.13815,131.94591c-2.528963.002607-4.578443,2.052087-4.58105,4.58105v13.78907c.002607,2.528963,2.052087,4.578443,4.58105,4.58105h3.28321c2.528963-.002607,4.578443-2.052087,4.58105-4.58105v-13.78907c-.002607-2.528963-2.052087-4.578443-4.58105-4.58105h-3.28321Z" transform="translate(-72.068627-32.790021)" fill="#535461"/><circle r="15.7585" transform="translate(333.896374 123.106979)" fill="#e6e6e6"/><circle r="15.7585" transform="translate(300.409374 156.593979)" fill="#e6e6e6"/><circle r="15.7585" transform="translate(368.696373 154.623979)" fill="#e6e6e6"/><circle r="15.7585" transform="translate(336.522374 189.423978)" fill="#e6e6e6"/><path d="M189.1215,122.75353c-7.331578.008332-13.272918,5.949672-13.28125,13.28125v58.76562c.008338,7.331575,5.949675,13.272912,13.28125,13.28125h134.93165c7.331575-.008338,13.272912-5.949675,13.28125-13.28125v-58.76562c-.008332-7.331578-5.949672-13.272918-13.28125-13.28125h-134.93165Z" transform="translate(-72.068627-32.790021)" fill="#535461"/><path d="M416.67066,163.11942h-21.36974l10.3165-17.685l11.05324,17.685Zm-19.08317-1.31319h16.71325l-8.64485-13.832-8.0684,13.832Z" transform="translate(-72.068626-32.790022)" fill="#535461"/><path d="M381.34233,197.26278h-17.72828v-15.75847h17.72828v15.75847Zm-16.41508-1.3132h15.1019v-13.13207h-15.1019v13.13207Z" transform="translate(-72.068626-32.790022)" fill="#535461"/><path d="M440.76493,197.26278c-5.439446,0-9.848991-4.409537-9.849-9.848983s4.409521-9.848999,9.848967-9.849017s9.849005,4.409504,9.849033,9.84895c-.006035,5.436959-4.412041,9.842988-9.849,9.84905Zm0-18.38489c-3.452431-.000004-6.564915,2.079688-7.886105,5.269317s-.5909,6.861053,1.850338,9.30229s6.112661,3.171528,9.30229,1.850338s5.269321-4.433674,5.269317-7.886105c-.005335-4.712003-3.823837-8.530505-8.53584-8.53584Z" transform="translate(-72.068626-32.790021)" fill="#535461"/><rect width="1.31307" height="20.893" rx="0" ry="0" transform="matrix(.707107-.707107 0.707107 0.707107 328.508194 184.50082)" fill="#535461"/><rect width="20.8981" height="1.31339" rx="0" ry="0" transform="matrix(.722557-.691311 0.691311 0.722557 328.519041 198.008997)" fill="#535461"/></g></svg>